<svg width="20" height="20" viewBox="0 0 20 20" fill="none" xmlns="http://www.w3.org/2000/svg">
<path d="M7.70898 7.5415C9.19232 8.08316 10.809 8.08316 12.2923 7.5415" stroke="#292D32" stroke-width="1.5" stroke-linecap="round" stroke-linejoin="round"/>
<path d="M14.0176 1.6665H5.98424C4.20924 1.6665 2.76758 3.1165 2.76758 4.88316V16.6249C2.76758 18.1249 3.84258 18.7582 5.15924 18.0332L9.22591 15.7749C9.65924 15.5332 10.3592 15.5332 10.7842 15.7749L14.8509 18.0332C16.1676 18.7665 17.2426 18.1332 17.2426 16.6249V4.88316C17.2342 3.1165 15.7926 1.6665 14.0176 1.6665Z" stroke="#292D32" stroke-width="1.5" stroke-linecap="round" stroke-linejoin="round"/>
<path d="M14.0176 1.6665H5.98424C4.20924 1.6665 2.76758 3.1165 2.76758 4.88316V16.6249C2.76758 18.1249 3.84258 18.7582 5.15924 18.0332L9.22591 15.7749C9.65924 15.5332 10.3592 15.5332 10.7842 15.7749L14.8509 18.0332C16.1676 18.7665 17.2426 18.1332 17.2426 16.6249V4.88316C17.2342 3.1165 15.7926 1.6665 14.0176 1.6665Z" stroke="#292D32" stroke-width="1.5" stroke-linecap="round" stroke-linejoin="round"/>
</svg>
