<svg width="19" height="18" viewBox="0 0 19 18" fill="none" xmlns="http://www.w3.org/2000/svg">
<path d="M12.8599 13.8223H9.85986L6.52235 16.0423C6.02735 16.3723 5.35986 16.0198 5.35986 15.4198V13.8223C3.10986 13.8223 1.60986 12.3223 1.60986 10.0723V5.57227C1.60986 3.32227 3.10986 1.82227 5.35986 1.82227H12.8599C15.1099 1.82227 16.6099 3.32227 16.6099 5.57227V10.0723C16.6099 12.3223 15.1099 13.8223 12.8599 13.8223Z" stroke="#FF8A4C" stroke-width="1.2" stroke-miterlimit="10" stroke-linecap="round" stroke-linejoin="round"/>
<path d="M9.10973 8.52002V8.36255C9.10973 7.85255 9.42475 7.58254 9.73975 7.36504C10.0472 7.15504 10.3547 6.88505 10.3547 6.39005C10.3547 5.70005 9.79973 5.14502 9.10973 5.14502C8.41973 5.14502 7.86475 5.70005 7.86475 6.39005" stroke="#FF8A4C" stroke-width="1.2" stroke-linecap="round" stroke-linejoin="round"/>
<path d="M9.10645 10.3125H9.1132" stroke="#FF8A4C" stroke-width="1.5" stroke-linecap="round" stroke-linejoin="round"/>
</svg>
