<svg width="19" height="18" viewBox="0 0 19 18" fill="none" xmlns="http://www.w3.org/2000/svg">
<path opacity="0.4" d="M17.185 7.82988L16.45 10.9649C15.82 13.6724 14.575 14.7674 12.235 14.5424C11.86 14.5124 11.455 14.4449 11.02 14.3399L9.76009 14.0399C6.63258 13.2974 5.66508 11.7524 6.40008 8.61738L7.13508 5.47488C7.28508 4.83738 7.46508 4.28238 7.69008 3.82488C8.56758 2.00988 10.0601 1.52238 12.565 2.11488L13.8175 2.40738C16.96 3.14238 17.92 4.69488 17.185 7.82988Z" fill="#12B76A"/>
<path d="M6.7143 4.72168C6.65615 4.92036 6.60108 5.12596 6.55122 5.33789L5.81684 8.48046C5.43564 10.1064 5.45667 11.4709 6.12251 12.5429C6.78788 13.6141 8.00086 14.2391 9.62153 14.624L10.2856 14.7822L9.10395 15.1718C7.67101 15.6338 6.72508 15.6201 6.05122 15.2753C5.46149 14.9736 4.95521 14.3541 4.52583 13.2441L4.34614 12.7373L3.38618 9.77636C2.92403 8.343 2.93631 7.39468 3.27973 6.71972C3.62279 6.04574 4.37993 5.48029 5.81196 5.01855L5.81587 5.01757L6.7143 4.72168Z" fill="#12B76A" stroke="#12B76A" stroke-width="1.2"/>
<path d="M14.0579 7.88233C14.0129 7.88233 13.9679 7.87483 13.9154 7.86733L10.278 6.94483C9.97796 6.86983 9.79796 6.56233 9.87296 6.26234C9.94796 5.96234 10.2555 5.78233 10.5555 5.85733L14.1929 6.77983C14.4929 6.85483 14.6729 7.16233 14.5979 7.46233C14.5379 7.70983 14.3054 7.88233 14.0579 7.88233Z" fill="white"/>
<path d="M11.8607 10.4176C11.8157 10.4176 11.7707 10.4101 11.7182 10.4026L9.53577 9.84766C9.23577 9.77266 9.05577 9.46516 9.13077 9.16516C9.20577 8.86516 9.51327 8.68516 9.81327 8.76016L11.9957 9.31516C12.2957 9.39016 12.4757 9.69766 12.4007 9.99766C12.3407 10.2526 12.1157 10.4176 11.8607 10.4176Z" fill="white"/>
</svg>
