<svg width="18" height="18" viewBox="0 0 18 18" fill="none" xmlns="http://www.w3.org/2000/svg">
<path opacity="0.4" d="M4.30502 12C4.38752 11.6325 4.23752 11.1075 3.97502 10.845L2.15252 9.0225C1.58252 8.4525 1.35752 7.845 1.52252 7.32C1.69502 6.795 2.22752 6.435 3.02252 6.3L5.36252 5.91C5.70002 5.85 6.11252 5.55 6.27002 5.2425L7.56002 2.655C7.93502 1.9125 8.44502 1.5 9.00002 1.5C9.55502 1.5 10.065 1.9125 10.44 2.655L11.73 5.2425C11.8275 5.4375 12.03 5.625 12.2475 5.7525L4.17002 13.83C4.06502 13.935 3.88502 13.8375 3.91502 13.6875L4.30502 12Z" fill="#12B76A"/>
<path d="M14.1094 6.76251L14.1123 6.76348L14.8691 6.89043C15.4729 6.99297 15.7527 7.2176 15.8623 7.42071L15.8994 7.50665C15.9649 7.72757 15.9038 8.10873 15.415 8.59747L15.4141 8.59844L13.6006 10.4197C13.3769 10.6434 13.2282 10.9383 13.1475 11.2195C13.0677 11.4974 13.037 11.8243 13.1104 12.1326L13.1094 12.1336L13.627 14.3904L13.6279 14.3924C13.8315 15.2701 13.6335 15.6368 13.4766 15.7508C13.4049 15.8017 13.3073 15.8396 13.1543 15.8396C12.9151 15.8396 12.5716 15.7473 12.1328 15.4881L9.93555 14.1834L9.93359 14.1814L9.82324 14.1228C9.56159 13.9974 9.26737 13.9471 9 13.9471C8.69423 13.9471 8.35268 14.0128 8.06543 14.1814L8.06348 14.1834L5.86914 15.4861C5.14904 15.9078 4.74531 15.8735 4.56738 15.7781L13.3311 7.01641C13.5413 6.80612 13.8341 6.71445 14.1094 6.76251Z" fill="#12B76A" stroke="#12B76A" stroke-width="1.2"/>
</svg>
