<svg width="21" height="20" viewBox="0 0 21 20" fill="none" xmlns="http://www.w3.org/2000/svg">
<path d="M18.2682 7.62506C16.3432 4.60006 13.5265 2.8584 10.5599 2.8584C9.07657 2.8584 7.6349 3.29173 6.31823 4.10006C5.00157 4.91673 3.81823 6.1084 2.85157 7.62506C2.01823 8.9334 2.01823 11.0584 2.85157 12.3667C4.77657 15.4 7.59323 17.1334 10.5599 17.1334C12.0432 17.1334 13.4849 16.7 14.8015 15.8917C16.1182 15.075 17.3015 13.8834 18.2682 12.3667C19.1015 11.0667 19.1015 8.9334 18.2682 7.62506ZM10.5599 13.3667C8.69323 13.3667 7.19323 11.8584 7.19323 10.0001C7.19323 8.14173 8.69323 6.6334 10.5599 6.6334C12.4265 6.6334 13.9265 8.14173 13.9265 10.0001C13.9265 11.8584 12.4265 13.3667 10.5599 13.3667Z" fill="#12B76A"/>
<path d="M10.5601 7.6167C9.25173 7.6167 8.18506 8.68337 8.18506 10C8.18506 11.3084 9.25173 12.375 10.5601 12.375C11.8684 12.375 12.9434 11.3084 12.9434 10C12.9434 8.6917 11.8684 7.6167 10.5601 7.6167Z" fill="#12B76A"/>
</svg>
