<svg width="14" height="19" viewBox="0 0 14 19" fill="none" xmlns="http://www.w3.org/2000/svg">
<path d="M10.674 0.723877H3.62338C3.16763 0.723877 2.76953 1.03204 2.6553 1.47325L1.05084 7.67063C0.886921 8.30378 1.3649 8.92126 2.01892 8.92126H3.99594L2.93011 16.8855C2.80467 17.8229 3.93013 18.3945 4.61306 17.7403L13.065 9.6434C13.7158 9.01988 13.2745 7.92126 12.3732 7.92126H9.77396L11.6279 2.02378C11.8305 1.37951 11.3493 0.723877 10.674 0.723877Z" fill="url(#paint0_linear_1_25)"/>
<path d="M11.6279 2.02378L9.77396 7.92126H12.3732C13.2745 7.92126 13.7158 9.01988 13.065 9.6434L4.61306 17.7403C3.93013 18.3945 2.80467 17.8229 2.93011 16.8855L3.99594 8.92126H2.01892C1.3649 8.92126 0.886921 8.30378 1.05084 7.67063L2.6553 1.47325C2.76953 1.03204 3.16763 0.723877 3.62338 0.723877H10.674C11.3493 0.723877 11.8305 1.37951 11.6279 2.02378ZM11.6279 2.02378L11.151 1.87383" stroke="url(#paint1_linear_1_25)"/>
<defs>
<linearGradient id="paint0_linear_1_25" x1="7.49546" y1="1.22388" x2="7.49546" y2="18.3667" gradientUnits="userSpaceOnUse">
<stop stop-color="#FACA59"/>
<stop offset="0.514934" stop-color="#F99D1B"/>
</linearGradient>
<linearGradient id="paint1_linear_1_25" x1="7.49546" y1="1.22388" x2="7.49546" y2="18.3667" gradientUnits="userSpaceOnUse">
<stop stop-color="white"/>
<stop offset="1" stop-color="white"/>
</linearGradient>
</defs>
</svg>
